<svg xmlns="http://www.w3.org/2000/svg" viewBox="0 0 100 130" role="img" aria-hidden="true"><path d="M36.54 124.84C35.48 124.64 34.94 124.44 34.37 124.05L33.89 123.72L33.61 123.3L33.33 122.87L33.33 122.38L33.33 121.89L33.64 121.32C33.81 121.01 34.34 120.3 34.81 119.74C35.29 119.19 36.04 118.26 36.49 117.68L37.3 116.63L37.71 115.77L38.12 114.91L38.24 114.14L38.35 113.36L38.22 111.34C38.15 110.23 38.03 108.81 37.94 108.18C37.62 105.82 36.94 99.4 36.84 97.77L36.73 96.09L36.8 95.45C36.92 94.32 37.26 92.24 37.75 89.73C38.01 88.38 38.26 86.85 38.31 86.33L38.4 85.38L38.31 84.56C38.14 82.83 37.39 78.4 36.9 76.22C36.72 75.42 36.27 71.85 36.11 69.96C35.82 66.48 36.23 62.45 37.22 59.17L37.71 57.54L38.45 55.9C38.85 55 39.39 53.82 39.63 53.26C40.19 52.03 40.57 50.97 40.91 49.74L41.17 48.79L41.23 47.47L41.29 46.15L41.12 45.21C40.88 43.92 40.66 43.16 40.41 42.81L40.2 42.52L40 42.52C39.49 42.52 39.17 43.19 38.38 45.89C38.06 47.02 37.47 48.82 37.09 49.89L36.4 51.84L35.53 53.63C35.06 54.62 34.42 55.82 34.11 56.31C33.18 57.8 30.75 62.32 30.54 62.97C30.47 63.18 30.37 63.87 30.32 64.5L30.22 65.64L29.59 67.62C28.5 71.02 28.05 71.65 26.26 72.33L25.63 72.56L24.94 72.58L24.26 72.59L23.73 72.34L23.2 72.08L22.55 71.43L21.9 70.79L21.79 70.35L21.67 69.91L21.74 69.51C21.78 69.3 22 68.62 22.23 68.01L22.65 66.91L22.66 66.47L22.68 66.04L22.52 65.86C22.44 65.76 22.12 65.56 21.82 65.43L21.27 65.19L21.09 64.92L20.92 64.64L20.98 64.35L21.05 64.06L21.85 63.3C22.94 62.25 23.86 61.58 24.99 61.02C25.52 60.75 26.15 60.36 26.4 60.15L26.85 59.77L27.09 59.28C27.23 59.02 27.75 57.47 28.26 55.85C30.47 48.73 30.45 48.77 31.42 47.36C31.72 46.92 32.04 46.34 32.14 46.09C32.8 44.24 33.71 40.3 33.99 38.04C34.06 37.52 34.28 36.19 34.48 35.09C34.69 33.99 34.95 32.58 35.06 31.95C35.54 29.39 36.14 27.73 36.81 27.14L37.21 26.79L38.26 26.29L39.32 25.78L40.64 25.46C42.45 25.01 43.51 24.65 44.36 24.21L45.08 23.84L45.55 23.38L46.02 22.92L46.22 22.47L46.43 22.01L46.49 21.28L46.56 20.56L46.39 19.78L46.23 19L45.33 17.15C44.33 15.05 44.13 14.47 44.04 13.34L43.98 12.55L44.1 11.64C44.25 10.53 44.66 9.08 45.08 8.2L45.39 7.54L46.03 6.86L46.67 6.18L47.42 5.81C48.26 5.4 49.11 5.16 50.06 5.06L50.7 5L51.43 5.17C51.84 5.26 52.46 5.48 52.82 5.66L53.47 5.97L54.15 6.71L54.83 7.44L55.42 8.63C55.74 9.28 56.09 10.12 56.19 10.5L56.37 11.18L56.38 12.55L56.38 13.92L56.15 14.66C56.02 15.06 55.58 16.1 55.17 16.97C54.28 18.82 54.05 19.45 53.95 20.28L53.88 20.9L54.01 21.62L54.13 22.35L54.41 22.87L54.7 23.4L55.26 23.74L55.83 24.07L57.21 24.51C60.69 25.61 61.59 25.92 62.18 26.23L62.81 26.56L63.35 27.09L63.88 27.62L64.32 28.41L64.76 29.2L65.07 30.2C65.54 31.7 65.87 33.34 66.29 36.25C66.96 40.96 67.37 43.1 67.99 45.03L68.37 46.23L68.95 47.14C70.06 48.89 70.85 50.82 71.39 53.1C71.78 54.75 72.99 58.55 73.35 59.28C73.68 59.93 74.07 60.24 75.35 60.85L76.43 61.37L77.2 61.99C78 62.63 78.61 63.23 78.91 63.69L79.08 63.95L79.08 64.38L79.08 64.81L78.8 65.08C78.64 65.23 78.37 65.44 78.21 65.54C77.84 65.77 77.61 66.21 77.61 66.68L77.61 67.05L77.94 67.93C78.42 69.22 78.46 69.38 78.46 69.99L78.47 70.55L78.31 70.8C77.88 71.46 76.69 72.24 75.91 72.37L75.53 72.44L74.53 72.29C73.13 72.08 72.81 71.89 72.36 71C72.04 70.36 70.94 67.68 70.56 66.59L70.22 65.64L70.13 64.43L70.04 63.22L69.89 62.8C69.72 62.33 68.87 60.73 66.65 56.69C63.93 51.73 62.8 49.02 61.75 44.94C61.44 43.75 61.12 43.01 60.78 42.7L60.56 42.5L60.33 42.57L60.1 42.65L59.9 43.11L59.69 43.57L59.49 44.97C59.37 45.74 59.25 46.89 59.22 47.52L59.16 48.68L59.38 49.52C59.63 50.49 60.23 51.95 61.25 54.16C62.24 56.28 62.66 57.38 63.22 59.24L63.69 60.81L63.9 62.12C64.44 65.36 64.53 67.68 64.23 70.96L64.01 73.33L63.59 75.49C63.35 76.68 63.02 78.28 62.85 79.06C62.68 79.84 62.46 81.12 62.37 81.9L62.21 83.34L62.26 85.5L62.32 87.66L62.86 90.66C63.6 94.76 63.6 94.71 63.6 96.64L63.6 98.36L63.34 100.85C63.19 102.23 63.05 103.64 63.02 103.99C62.98 104.33 62.87 105.28 62.75 106.09C62.45 108.33 62.22 111.17 62.21 112.88L62.2 114.41L62.48 115.19C62.91 116.41 63.6 117.46 65.66 120.05C66.19 120.72 66.74 121.47 66.87 121.73L67.11 122.21L67.11 122.69L67.12 123.17L66.88 123.5L66.65 123.83L66.09 124.1C65.78 124.25 64.97 124.52 64.28 124.69L63.02 125L62.25 125L61.49 125L60.99 124.75L60.48 124.49L60.05 124.02C59.54 123.46 59.28 122.98 58.76 121.63L58.38 120.63L57.78 119.76L57.18 118.89L57.03 118.37C56.94 118.09 56.84 117.48 56.81 117.03L56.74 116.2L56.96 113.73C57.08 112.37 57.17 110.68 57.17 109.99L57.17 108.73L56.87 106.88C56.7 105.87 56.44 104.55 56.29 103.95C55.42 100.54 55.22 99.11 55.07 94.91L54.97 92.27L54.81 91.49C54.72 91.06 54.41 89.95 54.12 89.03L53.59 87.35L53.12 85.03C52.86 83.75 52.58 82.09 52.48 81.34C52.39 80.58 52.23 79.47 52.12 78.86C52.01 78.25 51.82 77.02 51.7 76.12C51.29 73.06 50.88 71.29 50.47 70.84L50.3 70.65L50.1 70.76C49.65 71 49.21 72.63 48.81 75.54C47.7 83.62 47.26 86.03 46.36 88.82C46.16 89.45 45.87 90.5 45.73 91.13L45.48 92.29L45.38 94.87C45.21 99.16 45.05 100.42 44.17 104.42C43.97 105.34 43.66 106.98 43.49 108.07L43.16 110.06L43.16 111.51L43.16 112.97L43.37 114.53C43.49 115.39 43.58 116.48 43.58 116.94L43.58 117.78L43.4 118.31C43.29 118.6 42.94 119.23 42.61 119.71L42.02 120.57L41.68 121.65C41.28 122.95 41.07 123.4 40.56 123.96L40.18 124.38L39.64 124.66L39.11 124.93L38.21 124.96L37.32 124.99L36.54 124.84Z" fill="currentColor" fill-opacity="0.1" stroke="currentColor" stroke-width="1.2" vector-effect="non-scaling-stroke"/></svg>
